<mxfile host="app.diagrams.net" modified="2024-05-11T04:23:45.347Z" agent="Mozilla/5.0 (Windows NT 10.0; Win64; x64) AppleWebKit/537.36 (KHTML, like Gecko) Chrome/123.0.0.0 Safari/537.36" version="24.0.4" etag="nB6q3t7n15lsU3HbSim9" type="github">
  <diagram name="第 1 页" id="rbUQSemfoo8u0zf_SeJB">
    <mxGraphModel>
      <root>
        <mxCell id="0" />
        <mxCell id="1" parent="0" />
      </root>
    </mxGraphModel>
  </diagram>
</mxfile>
